<svg xmlns="http://www.w3.org/2000/svg" xmlns:xlink="http://www.w3.org/1999/xlink" width="500" zoomAndPan="magnify" viewBox="0 0 375 374.999991" height="500" preserveAspectRatio="xMidYMid meet" version="1.0"><defs><filter x="0%" y="0%" width="100%" height="100%" id="id1"><feColorMatrix values="0 0 0 0 1 0 0 0 0 1 0 0 0 0 1 0 0 0 1 0" color-interpolation-filters="sRGB"/></filter><g/><mask id="id2"><g filter="url(#id1)"><rect x="-37.5" width="450" fill="#000000" y="-37.499999" height="449.999989" fill-opacity="0.8471"/></g></mask><clipPath id="id3"><path d="M 0.390625 0.390625 L 302.640625 0.390625 L 302.640625 302.640625 L 0.390625 302.640625 Z M 0.390625 0.390625 " clip-rule="nonzero"/></clipPath><clipPath id="id4"><rect x="0" width="303" y="0" height="303"/></clipPath><clipPath id="id5"><path d="M 109.6875 119 L 185 119 L 185 173.253906 L 109.6875 173.253906 Z M 109.6875 119 " clip-rule="nonzero"/></clipPath><clipPath id="id6"><path d="M 109.6875 118 L 186 118 L 186 168 L 109.6875 168 Z M 109.6875 118 " clip-rule="nonzero"/></clipPath><clipPath id="id7"><path d="M 160 73.503906 L 187 73.503906 L 187 167 L 160 167 Z M 160 73.503906 " clip-rule="nonzero"/></clipPath><clipPath id="id8"><path d="M 184 73.503906 L 212 73.503906 L 212 167 L 184 167 Z M 184 73.503906 " clip-rule="nonzero"/></clipPath><clipPath id="id9"><path d="M 184 119 L 259.6875 119 L 259.6875 173 L 184 173 Z M 184 119 " clip-rule="nonzero"/></clipPath><clipPath id="id10"><path d="M 183 118 L 259.6875 118 L 259.6875 168 L 183 168 Z M 183 118 " clip-rule="nonzero"/></clipPath></defs><g mask="url(#id2)"><g transform="matrix(1, 0, 0, 1, 36, 36)"><g clip-path="url(#id4)"><g clip-path="url(#id3)"><path fill="#f5f0ec" d="M 151.515625 0.390625 C 68.050781 0.390625 0.390625 68.050781 0.390625 151.515625 C 0.390625 234.980469 68.050781 302.640625 151.515625 302.640625 C 234.980469 302.640625 302.640625 234.980469 302.640625 151.515625 C 302.640625 68.050781 234.980469 0.390625 151.515625 0.390625 " fill-opacity="1" fill-rule="nonzero"/></g></g></g></g><g clip-path="url(#id5)"><path fill="#7cacb8" d="M 182.480469 165.460938 C 180.273438 167.539062 177.234375 168.210938 174.324219 168.6875 C 170.773438 169.265625 167.160156 169.742188 163.578125 170.0625 C 156.605469 170.703125 149.570312 170.574219 142.917969 168.175781 C 131.242188 163.988281 122.449219 154.175781 117.621094 142.988281 C 114.613281 136.019531 113.046875 128.445312 112.566406 120.871094 C 112.4375 119.082031 109.625 119.046875 109.75 120.871094 C 110.679688 134.804688 115.125 148.871094 124.816406 159.257812 C 129.164062 163.925781 134.410156 167.699219 140.296875 170.160156 C 147.074219 172.972656 154.367188 173.578125 161.628906 173.035156 C 165.945312 172.714844 170.261719 172.140625 174.515625 171.46875 C 178.132812 170.925781 181.777344 170 184.527344 167.410156 C 185.773438 166.195312 183.792969 164.214844 182.480469 165.460938 Z M 182.480469 165.460938 " fill-opacity="1" fill-rule="nonzero"/></g><g clip-path="url(#id6)"><path fill="#7cacb8" d="M 185.519531 166.132812 C 186.703125 153.632812 180.65625 141.296875 171.351562 133.175781 C 161.5 124.546875 148.675781 120.328125 135.816406 118.984375 C 127.597656 118.121094 119.28125 118.410156 111.0625 119.144531 C 109.273438 119.304688 109.238281 122.117188 111.0625 121.957031 C 124.558594 120.773438 138.441406 120.742188 151.425781 125.121094 C 162.746094 128.925781 173.078125 136.179688 178.707031 146.921875 C 181.808594 152.800781 183.3125 159.484375 182.671875 166.132812 C 182.511719 167.921875 185.359375 167.921875 185.519531 166.132812 Z M 185.519531 166.132812 " fill-opacity="1" fill-rule="nonzero"/></g><path fill="#7cacb8" d="M 184.816406 164.375 C 181.359375 165.394531 177.84375 164.214844 174.582031 163.125 C 171.445312 162.070312 168.28125 160.984375 165.210938 159.769531 C 159.230469 157.40625 153.472656 154.304688 148.898438 149.703125 C 140.070312 140.816406 136.359375 128.0625 136.96875 115.757812 C 137.351562 107.957031 139.398438 100.253906 142.4375 93.09375 C 142.726562 92.390625 142.628906 91.589844 141.925781 91.175781 C 141.351562 90.824219 140.296875 90.984375 140.007812 91.6875 C 134.410156 104.824219 132.011719 119.71875 136.296875 133.59375 C 138.183594 139.664062 141.253906 145.386719 145.507812 150.179688 C 150.050781 155.296875 155.933594 158.84375 162.171875 161.527344 C 165.785156 163.0625 169.496094 164.375 173.207031 165.621094 C 177.171875 166.960938 181.394531 168.335938 185.582031 167.089844 C 187.308594 166.578125 186.542969 163.863281 184.816406 164.375 Z M 184.816406 164.375 " fill-opacity="1" fill-rule="nonzero"/><path fill="#7cacb8" d="M 162.492188 100.507812 C 156.03125 96.609375 149.121094 93.445312 142.117188 90.664062 C 141.414062 90.375 140.582031 90.984375 140.390625 91.65625 C 140.167969 92.453125 140.679688 93.09375 141.382812 93.382812 C 148.164062 96.097656 154.816406 99.167969 161.085938 102.9375 C 162.621094 103.863281 164.058594 101.4375 162.492188 100.507812 Z M 162.492188 100.507812 " fill-opacity="1" fill-rule="nonzero"/><path fill="#7cacb8" d="M 187.535156 166.355469 C 192.972656 157.726562 194.15625 146.984375 191.949219 137.171875 C 189.742188 127.390625 184.078125 118.632812 176.980469 111.632812 C 172.628906 107.347656 167.703125 103.671875 162.492188 100.507812 C 160.925781 99.550781 159.515625 102.011719 161.050781 102.9375 C 169.496094 108.085938 177.234375 114.636719 182.703125 122.980469 C 187.917969 130.9375 190.828125 140.242188 190.0625 149.796875 C 189.644531 155.167969 187.980469 160.378906 185.101562 164.949219 C 184.113281 166.484375 186.574219 167.890625 187.535156 166.355469 Z M 187.535156 166.355469 " fill-opacity="1" fill-rule="nonzero"/><g clip-path="url(#id7)"><path fill="#7cacb8" d="M 184.65625 164.085938 C 174.355469 157.085938 167.417969 145.640625 164.730469 133.59375 C 161.597656 119.625 163.996094 104.25 171.285156 91.941406 C 174.902344 85.742188 179.824219 80.242188 185.808594 76.214844 C 187.308594 75.195312 185.902344 72.765625 184.367188 73.785156 C 172.535156 81.777344 164.761719 94.753906 161.882812 108.628906 C 158.910156 123.011719 160.988281 138.289062 168.632812 150.949219 C 172.34375 157.085938 177.265625 162.519531 183.214844 166.546875 C 184.71875 167.539062 186.125 165.109375 184.65625 164.085938 Z M 184.65625 164.085938 " fill-opacity="1" fill-rule="nonzero"/></g><g clip-path="url(#id8)"><path fill="#7cacb8" d="M 187.34375 166.546875 C 198.632812 159.324219 206.722656 147.433594 209.859375 134.453125 C 213.441406 119.65625 210.691406 103.289062 202.535156 90.410156 C 198.34375 83.761719 192.746094 78.007812 186.09375 73.785156 C 184.558594 72.796875 183.152344 75.257812 184.65625 76.214844 C 196.296875 83.632812 204.230469 95.875 207.203125 109.265625 C 210.242188 123.011719 208.003906 137.523438 200.421875 149.414062 C 196.679688 155.261719 191.753906 160.378906 185.902344 164.117188 C 184.367188 165.078125 185.808594 167.539062 187.34375 166.546875 Z M 187.34375 166.546875 " fill-opacity="1" fill-rule="nonzero"/></g><path fill="#7cacb8" d="M 183.535156 165.875 C 187.183594 166.960938 190.925781 166.066406 194.441406 164.886719 C 197.832031 163.765625 201.191406 162.617188 204.484375 161.304688 C 210.882812 158.78125 217.054688 155.550781 221.980469 150.660156 C 231.445312 141.296875 235.605469 127.648438 234.933594 114.542969 C 234.515625 106.199219 232.34375 98.113281 229.078125 90.472656 C 228.792969 89.769531 227.738281 89.609375 227.160156 89.960938 C 226.425781 90.375 226.359375 91.207031 226.648438 91.878906 C 231.894531 104.21875 234.101562 118.3125 230.167969 131.324219 C 228.441406 136.980469 225.625 142.382812 221.691406 146.824219 C 217.46875 151.683594 212 155.039062 206.148438 157.597656 C 202.757812 159.066406 199.273438 160.28125 195.785156 161.464844 C 192.140625 162.710938 188.171875 164.277344 184.304688 163.160156 C 182.542969 162.648438 181.808594 165.363281 183.535156 165.875 Z M 183.535156 165.875 " fill-opacity="1" fill-rule="nonzero"/><path fill="#7cacb8" d="M 184.015625 163.703125 C 177.425781 153.28125 177.585938 139.824219 182.542969 128.765625 C 187.628906 117.386719 196.96875 108.53125 207.425781 102.074219 C 213.855469 98.113281 220.730469 94.914062 227.738281 92.132812 C 228.441406 91.847656 228.953125 91.175781 228.726562 90.410156 C 228.535156 89.738281 227.703125 89.128906 227 89.417969 C 214.273438 94.5 201.734375 100.828125 191.914062 110.609375 C 182.894531 119.625 176.4375 131.449219 176.117188 144.394531 C 175.925781 151.652344 177.683594 158.972656 181.585938 165.109375 C 182.542969 166.675781 184.976562 165.269531 184.015625 163.703125 Z M 184.015625 163.703125 " fill-opacity="1" fill-rule="nonzero"/><g clip-path="url(#id9)"><path fill="#7cacb8" d="M 184.910156 166.996094 C 187.34375 169.296875 190.507812 170.285156 193.738281 170.863281 C 197.382812 171.5 201.0625 171.949219 204.742188 172.332031 C 212.191406 173.097656 219.835938 173.066406 226.96875 170.542969 C 239.441406 166.164062 249.070312 155.933594 254.21875 143.949219 C 257.449219 136.5 259.144531 128.507812 259.65625 120.421875 C 259.785156 118.601562 256.9375 118.632812 256.839844 120.421875 C 255.976562 133.496094 251.820312 146.824219 242.800781 156.605469 C 238.769531 160.984375 233.910156 164.597656 228.40625 166.960938 C 222.109375 169.679688 215.296875 170.253906 208.484375 169.839844 C 204.355469 169.582031 200.261719 169.007812 196.203125 168.433594 C 192.9375 167.953125 189.355469 167.378906 186.863281 165.011719 C 185.582031 163.765625 183.601562 165.746094 184.910156 166.996094 Z M 184.910156 166.996094 " fill-opacity="1" fill-rule="nonzero"/></g><g clip-path="url(#id10)"><path fill="#7cacb8" d="M 186.671875 165.683594 C 185.550781 153.730469 191.308594 142.222656 200.230469 134.519531 C 209.699219 126.367188 222.171875 122.4375 234.453125 121.285156 C 242.382812 120.550781 250.378906 120.839844 258.3125 121.542969 C 260.136719 121.703125 260.101562 118.886719 258.3125 118.730469 C 244.273438 117.480469 229.75 117.578125 216.320312 122.308594 C 204.515625 126.464844 193.800781 134.199219 188.015625 145.484375 C 184.816406 151.683594 183.183594 158.714844 183.855469 165.714844 C 184.015625 167.472656 186.863281 167.472656 186.671875 165.683594 Z M 186.671875 165.683594 " fill-opacity="1" fill-rule="nonzero"/></g><g fill="#7cacb8" fill-opacity="1"><g transform="translate(87.509193, 240.015234)"><g><path d="M 40.359375 -33.484375 L 38.734375 -33.484375 C 37.960938 -37.253906 36.925781 -39.648438 35.625 -40.671875 C 34.332031 -41.691406 31.757812 -42.203125 27.90625 -42.203125 L 24.234375 -42.203125 L 24.234375 -7.421875 C 24.234375 -4.921875 24.617188 -3.304688 25.390625 -2.578125 C 26.160156 -1.859375 27.953125 -1.429688 30.765625 -1.296875 L 30.765625 0 L 10.890625 0 L 10.890625 -1.296875 C 13.703125 -1.472656 15.46875 -1.9375 16.1875 -2.6875 C 16.914062 -3.4375 17.28125 -5.265625 17.28125 -8.171875 L 17.28125 -42.203125 L 13.609375 -42.203125 C 9.796875 -42.203125 7.242188 -41.675781 5.953125 -40.625 C 4.660156 -39.582031 3.609375 -37.203125 2.796875 -33.484375 L 1.15625 -33.484375 L 1.5625 -45.0625 L 39.953125 -45.0625 Z M 40.359375 -33.484375 "/></g></g></g><g fill="#7cacb8" fill-opacity="1"><g transform="translate(131.477923, 240.015234)"><g><path d="M 40.640625 -11.5 L 37.578125 0 L 0.8125 0 L 0.8125 -1.296875 C 3.3125 -1.472656 4.921875 -1.9375 5.640625 -2.6875 C 6.367188 -3.4375 6.734375 -5.015625 6.734375 -7.421875 L 6.734375 -37.640625 C 6.734375 -40.046875 6.378906 -41.609375 5.671875 -42.328125 C 4.972656 -43.054688 3.351562 -43.535156 0.8125 -43.765625 L 0.8125 -45.0625 L 36.953125 -45.0625 L 37.15625 -35.328125 L 35.453125 -35.328125 C 34.867188 -38.367188 33.960938 -40.316406 32.734375 -41.171875 C 31.515625 -42.035156 28.972656 -42.46875 25.109375 -42.46875 L 15.921875 -42.46875 C 15.015625 -42.46875 14.414062 -42.320312 14.125 -42.03125 C 13.832031 -41.738281 13.6875 -41.113281 13.6875 -40.15625 L 13.6875 -25.046875 L 24.15625 -25.046875 C 26.925781 -25.046875 28.753906 -25.429688 29.640625 -26.203125 C 30.523438 -26.972656 31.195312 -28.742188 31.65625 -31.515625 L 33.21875 -31.515625 L 33.21875 -15.71875 L 31.65625 -15.71875 C 31.195312 -18.53125 30.535156 -20.320312 29.671875 -21.09375 C 28.804688 -21.863281 26.96875 -22.25 24.15625 -22.25 L 13.6875 -22.25 L 13.6875 -5.4375 C 13.6875 -4.21875 13.863281 -3.492188 14.21875 -3.265625 C 14.851562 -2.765625 17.054688 -2.515625 20.828125 -2.515625 L 22.671875 -2.515625 C 27.523438 -2.515625 30.992188 -3.09375 33.078125 -4.25 C 35.160156 -5.40625 37.046875 -7.820312 38.734375 -11.5 Z M 40.640625 -11.5 "/></g></g></g><g fill="#7cacb8" fill-opacity="1"><g transform="translate(175.446653, 240.015234)"><g><path d="M 48.046875 0 L 30.703125 0 L 30.703125 -1.296875 C 32.554688 -1.296875 33.820312 -1.5 34.5 -1.90625 C 35.132812 -2.21875 35.453125 -2.765625 35.453125 -3.546875 C 35.453125 -4.628906 35.023438 -6.171875 34.171875 -8.171875 L 31.375 -14.703125 L 13.546875 -14.703125 L 10.40625 -6.734375 C 10.050781 -5.785156 9.875 -4.898438 9.875 -4.078125 C 9.875 -2.222656 11.414062 -1.296875 14.5 -1.296875 L 14.5 0 L 1.015625 0 L 1.015625 -1.296875 C 2.648438 -1.378906 3.921875 -2.019531 4.828125 -3.21875 C 5.734375 -4.425781 7.273438 -7.503906 9.453125 -12.453125 L 23.625 -45.875 L 24.984375 -45.875 L 41.921875 -7.21875 C 43.109375 -4.675781 44.039062 -3.070312 44.71875 -2.40625 C 45.394531 -1.75 46.503906 -1.378906 48.046875 -1.296875 Z M 30.421875 -17.484375 L 22.53125 -36.203125 L 14.703125 -17.484375 Z M 30.421875 -17.484375 "/></g></g></g><g fill="#7cacb8" fill-opacity="1"><g transform="translate(226.97032, 240.015234)"><g><path d="M 58.734375 0 L 39.6875 0 L 39.6875 -1.296875 C 42.363281 -1.472656 44.0625 -1.957031 44.78125 -2.75 C 45.507812 -3.550781 45.875 -5.359375 45.875 -8.171875 L 45.875 -39 L 28.453125 0 L 27.5 0 L 10.40625 -37.4375 L 10.40625 -10 C 10.40625 -6.550781 10.8125 -4.269531 11.625 -3.15625 C 12.445312 -2.050781 14.175781 -1.429688 16.8125 -1.296875 L 16.8125 0 L 0.8125 0 L 0.8125 -1.296875 C 3.625 -1.472656 5.425781 -2.09375 6.21875 -3.15625 C 7.019531 -4.226562 7.421875 -6.507812 7.421875 -10 L 7.421875 -37.640625 C 7.421875 -40.128906 7.046875 -41.722656 6.296875 -42.421875 C 5.546875 -43.128906 3.765625 -43.578125 0.953125 -43.765625 L 0.953125 -45.0625 L 14.421875 -45.0625 L 30.15625 -10.6875 L 45.1875 -45.0625 L 58.734375 -45.0625 L 58.734375 -43.765625 C 56.191406 -43.535156 54.566406 -43.054688 53.859375 -42.328125 C 53.160156 -41.609375 52.8125 -40.046875 52.8125 -37.640625 L 52.8125 -7.421875 C 52.8125 -5.015625 53.175781 -3.4375 53.90625 -2.6875 C 54.632812 -1.9375 56.242188 -1.472656 58.734375 -1.296875 Z M 58.734375 0 "/></g></g></g><g fill="#7cacb8" fill-opacity="1"><g transform="translate(131.566375, 269.944601)"><g><path d="M 8.523438 -12.628906 L 0.1875 -12.628906 L 0.1875 -11.28125 L 3.683594 -11.28125 L 3.683594 0 L 5.03125 0 L 5.03125 -11.28125 L 8.523438 -11.28125 Z M 8.523438 -12.628906 "/></g></g></g><g fill="#7cacb8" fill-opacity="1"><g transform="translate(140.279133, 269.944601)"><g><path d="M 5.324219 0.167969 C 7.746094 0.167969 9.703125 -1.789062 9.703125 -4.210938 C 9.703125 -6.628906 7.746094 -8.585938 5.324219 -8.585938 C 2.90625 -8.585938 0.945312 -6.628906 0.945312 -4.210938 C 0.945312 -1.789062 2.90625 0.167969 5.324219 0.167969 Z M 5.324219 -1.136719 C 3.621094 -1.136719 2.253906 -2.503906 2.253906 -4.210938 C 2.253906 -5.914062 3.621094 -7.28125 5.324219 -7.28125 C 7.007812 -7.28125 8.398438 -5.914062 8.398438 -4.210938 C 8.398438 -2.503906 7.007812 -1.136719 5.324219 -1.136719 Z M 5.324219 -1.136719 "/></g></g></g><g fill="#7cacb8" fill-opacity="1"><g transform="translate(150.928064, 269.944601)"><g><path d="M 9.597656 -8.585938 C 8.585938 -8.585938 7.703125 -8.101562 7.136719 -7.324219 C 6.566406 -8.101562 5.683594 -8.585938 4.796875 -8.585938 C 4.039062 -8.585938 3.347656 -8.207031 2.839844 -7.640625 L 2.839844 -8.417969 L 1.535156 -8.417969 L 1.535156 0 L 2.839844 0 L 2.839844 -5.386719 C 2.839844 -6.441406 3.640625 -7.28125 4.671875 -7.28125 C 5.660156 -7.28125 6.480469 -6.441406 6.480469 -5.386719 L 6.480469 0 L 7.789062 0 L 7.789062 -5.386719 C 7.789062 -6.441406 8.609375 -7.28125 9.597656 -7.28125 C 10.609375 -7.28125 11.429688 -6.441406 11.429688 -5.386719 L 11.429688 0 L 12.734375 0 L 12.734375 -5.386719 C 12.734375 -7.15625 11.34375 -8.585938 9.597656 -8.585938 Z M 9.597656 -8.585938 "/></g></g></g><g fill="#7cacb8" fill-opacity="1"><g transform="translate(165.070516, 269.944601)"><g><path d="M 10.566406 -1.09375 C 10.101562 -1.09375 9.703125 -1.410156 9.703125 -2.1875 L 9.703125 -8.417969 L 8.398438 -8.417969 L 8.398438 -7.324219 C 7.617188 -8.101562 6.523438 -8.585938 5.324219 -8.585938 C 2.90625 -8.585938 0.945312 -6.628906 0.945312 -4.210938 C 0.945312 -1.789062 2.90625 0.167969 5.324219 0.167969 C 6.585938 0.167969 7.722656 -0.421875 8.523438 -1.285156 C 8.796875 -0.421875 9.472656 0.167969 10.460938 0.167969 C 10.691406 0.167969 10.921875 0.105469 11.089844 0 L 11.089844 -1.09375 Z M 5.324219 -1.136719 C 3.621094 -1.136719 2.253906 -2.503906 2.253906 -4.210938 C 2.253906 -5.914062 3.621094 -7.28125 5.324219 -7.28125 C 7.007812 -7.28125 8.398438 -5.914062 8.398438 -4.210938 C 8.398438 -2.503906 7.007812 -1.136719 5.324219 -1.136719 Z M 5.324219 -1.136719 "/></g></g></g><g fill="#7cacb8" fill-opacity="1"><g transform="translate(176.413936, 269.944601)"><g><path d="M 3.621094 0.167969 C 5.09375 0.167969 6.3125 -0.820312 6.3125 -2.273438 C 6.3125 -3.789062 5.050781 -4.378906 3.957031 -4.820312 C 2.925781 -5.261719 2.398438 -5.492188 2.398438 -6.230469 C 2.398438 -6.945312 2.882812 -7.28125 3.578125 -7.28125 C 4.125 -7.28125 4.609375 -7.050781 4.839844 -6.609375 L 5.976562 -7.199219 C 5.660156 -7.957031 4.589844 -8.585938 3.515625 -8.585938 C 2.273438 -8.585938 1.074219 -7.722656 1.074219 -6.1875 C 1.074219 -4.863281 1.957031 -4.1875 3.453125 -3.621094 C 4.460938 -3.21875 5.007812 -2.945312 5.007812 -2.273438 C 5.007812 -1.535156 4.378906 -1.117188 3.621094 -1.117188 C 2.839844 -1.117188 2.082031 -1.558594 1.957031 -2.167969 L 0.695312 -1.664062 C 1.011719 -0.652344 2.273438 0.167969 3.621094 0.167969 Z M 3.621094 0.167969 "/></g></g></g><g fill="#7cacb8" fill-opacity="1"><g transform="translate(183.379937, 269.944601)"><g/></g></g><g fill="#7cacb8" fill-opacity="1"><g transform="translate(188.451853, 269.944601)"><g><path d="M 8.542969 -11.324219 L 8.542969 -12.628906 L 1.640625 -12.628906 L 1.640625 0 L 8.542969 0 L 8.542969 -1.304688 L 2.988281 -1.304688 L 2.988281 -5.660156 L 7.828125 -5.660156 L 7.828125 -6.964844 L 2.988281 -6.964844 L 2.988281 -11.324219 Z M 8.542969 -11.324219 "/></g></g></g><g fill="#7cacb8" fill-opacity="1"><g transform="translate(198.258966, 269.944601)"><g><path d="M 4.882812 -8.585938 C 4.105469 -8.585938 3.386719 -8.269531 2.839844 -7.746094 L 2.839844 -8.417969 L 1.535156 -8.417969 L 1.535156 0 L 2.839844 0 L 2.839844 -5.367188 C 2.839844 -6.441406 3.703125 -7.28125 4.777344 -7.28125 C 5.851562 -7.28125 6.691406 -6.441406 6.691406 -5.367188 L 6.691406 0 L 7.996094 0 L 7.996094 -5.367188 C 7.996094 -7.15625 6.503906 -8.585938 4.882812 -8.585938 Z M 4.882812 -8.585938 "/></g></g></g><g fill="#7cacb8" fill-opacity="1"><g transform="translate(207.687265, 269.944601)"><g><path d="M 5.640625 -8.585938 C 4.441406 -8.585938 3.472656 -8.0625 2.839844 -7.21875 L 2.839844 -8.417969 L 1.535156 -8.417969 L 1.535156 0 L 2.839844 0 L 2.839844 -4.566406 C 2.839844 -6.101562 4.105469 -7.28125 5.640625 -7.28125 C 5.894531 -7.28125 6.101562 -7.261719 6.292969 -7.199219 L 6.292969 -8.523438 C 6.101562 -8.566406 5.894531 -8.585938 5.640625 -8.585938 Z M 5.640625 -8.585938 "/></g></g></g><g fill="#7cacb8" fill-opacity="1"><g transform="translate(214.085037, 269.944601)"><g><path d="M 2.355469 -9.996094 C 2.839844 -9.996094 3.261719 -10.398438 3.261719 -10.882812 C 3.261719 -11.40625 2.839844 -11.785156 2.355469 -11.785156 C 1.851562 -11.785156 1.429688 -11.40625 1.429688 -10.882812 C 1.429688 -10.398438 1.851562 -9.996094 2.355469 -9.996094 Z M 1.703125 0 L 3.007812 0 L 3.007812 -8.417969 L 1.703125 -8.417969 Z M 1.703125 0 "/></g></g></g><g fill="#7cacb8" fill-opacity="1"><g transform="translate(218.77814, 269.944601)"><g><path d="M 10.964844 3.789062 C 10.292969 3.789062 9.703125 3.285156 9.703125 2.503906 L 9.703125 -8.417969 L 8.398438 -8.417969 L 8.398438 -7.324219 C 7.597656 -8.101562 6.523438 -8.585938 5.324219 -8.585938 C 2.90625 -8.585938 0.945312 -6.628906 0.945312 -4.210938 C 0.945312 -1.789062 2.90625 0.167969 5.324219 0.167969 C 6.523438 0.167969 7.597656 -0.316406 8.398438 -1.09375 L 8.398438 2.671875 C 8.398438 4 9.511719 5.050781 10.816406 5.050781 C 11.15625 5.050781 11.492188 4.988281 11.742188 4.882812 L 11.742188 3.789062 Z M 5.324219 -1.136719 C 3.621094 -1.136719 2.253906 -2.503906 2.253906 -4.210938 C 2.253906 -5.914062 3.621094 -7.28125 5.324219 -7.28125 C 7.007812 -7.28125 8.398438 -5.914062 8.398438 -4.210938 C 8.398438 -2.503906 7.007812 -1.136719 5.324219 -1.136719 Z M 5.324219 -1.136719 "/></g></g></g><g fill="#7cacb8" fill-opacity="1"><g transform="translate(230.016334, 269.944601)"><g><path d="M 4.417969 0.167969 C 6.292969 0.167969 7.578125 -1.074219 7.578125 -3.03125 L 7.578125 -8.417969 L 6.292969 -8.417969 L 6.292969 -3.179688 C 6.292969 -1.914062 5.515625 -1.136719 4.417969 -1.136719 C 3.347656 -1.136719 2.546875 -1.914062 2.546875 -3.179688 L 2.546875 -8.417969 L 1.261719 -8.417969 L 1.261719 -3.03125 C 1.261719 -1.074219 2.527344 0.167969 4.417969 0.167969 Z M 4.417969 0.167969 "/></g></g></g><g fill="#7cacb8" fill-opacity="1"><g transform="translate(238.834317, 269.944601)"><g><path d="M 9.703125 -4.292969 C 9.640625 -6.714844 7.722656 -8.585938 5.324219 -8.585938 C 2.90625 -8.585938 0.945312 -6.628906 0.945312 -4.210938 C 0.945312 -1.789062 2.90625 0.167969 5.324219 0.167969 C 7.324219 0.167969 8.988281 -1.15625 9.535156 -2.96875 L 8.144531 -2.96875 C 7.683594 -1.875 6.585938 -1.136719 5.324219 -1.136719 C 3.660156 -1.136719 2.335938 -2.398438 2.253906 -4.019531 L 9.679688 -4.019531 Z M 5.324219 -7.28125 C 6.671875 -7.28125 7.808594 -6.417969 8.207031 -5.199219 L 2.421875 -5.199219 C 2.839844 -6.417969 3.976562 -7.28125 5.324219 -7.28125 Z M 5.324219 -7.28125 "/></g></g></g><g fill="#7cacb8" fill-opacity="1"><g transform="translate(135.749793, 293.182303)"><g><path d="M 9.15625 0 L 10.628906 0 L 6.0625 -12.628906 L 4.566406 -12.628906 L 0 0 L 1.472656 0 L 2.503906 -2.945312 L 8.125 -2.945312 Z M 2.945312 -4.230469 L 5.324219 -11.027344 L 7.683594 -4.230469 Z M 2.945312 -4.230469 "/></g></g></g><g fill="#7cacb8" fill-opacity="1"><g transform="translate(146.377671, 293.182303)"><g><path d="M 8.375 -8.417969 L 8.375 -7.367188 C 7.597656 -8.125 6.503906 -8.585938 5.324219 -8.585938 C 2.90625 -8.585938 0.945312 -6.652344 0.945312 -4.210938 C 0.945312 -1.789062 2.90625 0.167969 5.324219 0.167969 C 6.523438 0.167969 7.597656 -0.316406 8.398438 -1.09375 L 8.398438 0.738281 C 8.398438 2.421875 7.007812 3.808594 5.324219 3.808594 C 3.957031 3.808594 2.800781 2.90625 2.398438 1.683594 L 1.199219 2.210938 C 1.808594 3.914062 3.429688 5.113281 5.324219 5.113281 C 7.746094 5.113281 9.703125 3.15625 9.703125 0.738281 L 9.703125 -8.417969 Z M 5.324219 -1.136719 C 3.621094 -1.136719 2.253906 -2.527344 2.253906 -4.210938 C 2.253906 -5.914062 3.621094 -7.28125 5.324219 -7.28125 C 7.007812 -7.28125 8.398438 -5.914062 8.398438 -4.210938 C 8.398438 -2.527344 7.007812 -1.136719 5.324219 -1.136719 Z M 5.324219 -1.136719 "/></g></g></g><g fill="#7cacb8" fill-opacity="1"><g transform="translate(157.615866, 293.182303)"><g><path d="M 4.417969 0.167969 C 6.292969 0.167969 7.578125 -1.074219 7.578125 -3.03125 L 7.578125 -8.417969 L 6.292969 -8.417969 L 6.292969 -3.179688 C 6.292969 -1.914062 5.515625 -1.136719 4.417969 -1.136719 C 3.347656 -1.136719 2.546875 -1.914062 2.546875 -3.179688 L 2.546875 -8.417969 L 1.261719 -8.417969 L 1.261719 -3.03125 C 1.261719 -1.074219 2.527344 0.167969 4.417969 0.167969 Z M 4.417969 0.167969 "/></g></g></g><g fill="#7cacb8" fill-opacity="1"><g transform="translate(166.433849, 293.182303)"><g><path d="M 2.355469 -9.996094 C 2.839844 -9.996094 3.261719 -10.398438 3.261719 -10.882812 C 3.261719 -11.40625 2.839844 -11.785156 2.355469 -11.785156 C 1.851562 -11.785156 1.429688 -11.40625 1.429688 -10.882812 C 1.429688 -10.398438 1.851562 -9.996094 2.355469 -9.996094 Z M 1.703125 0 L 3.007812 0 L 3.007812 -8.417969 L 1.703125 -8.417969 Z M 1.703125 0 "/></g></g></g><g fill="#7cacb8" fill-opacity="1"><g transform="translate(171.126951, 293.182303)"><g><path d="M 1.535156 0 L 2.839844 0 L 2.839844 -15.492188 L 1.535156 -15.492188 Z M 1.535156 0 "/></g></g></g><g fill="#7cacb8" fill-opacity="1"><g transform="translate(175.504378, 293.182303)"><g><path d="M 10.566406 -1.09375 C 10.101562 -1.09375 9.703125 -1.410156 9.703125 -2.1875 L 9.703125 -8.417969 L 8.398438 -8.417969 L 8.398438 -7.324219 C 7.617188 -8.101562 6.523438 -8.585938 5.324219 -8.585938 C 2.90625 -8.585938 0.945312 -6.628906 0.945312 -4.210938 C 0.945312 -1.789062 2.90625 0.167969 5.324219 0.167969 C 6.585938 0.167969 7.722656 -0.421875 8.523438 -1.285156 C 8.796875 -0.421875 9.472656 0.167969 10.460938 0.167969 C 10.691406 0.167969 10.921875 0.105469 11.089844 0 L 11.089844 -1.09375 Z M 5.324219 -1.136719 C 3.621094 -1.136719 2.253906 -2.503906 2.253906 -4.210938 C 2.253906 -5.914062 3.621094 -7.28125 5.324219 -7.28125 C 7.007812 -7.28125 8.398438 -5.914062 8.398438 -4.210938 C 8.398438 -2.503906 7.007812 -1.136719 5.324219 -1.136719 Z M 5.324219 -1.136719 "/></g></g></g><g fill="#7cacb8" fill-opacity="1"><g transform="translate(186.847798, 293.182303)"><g><path d="M 5.640625 -8.585938 C 4.441406 -8.585938 3.472656 -8.0625 2.839844 -7.21875 L 2.839844 -8.417969 L 1.535156 -8.417969 L 1.535156 0 L 2.839844 0 L 2.839844 -4.566406 C 2.839844 -6.101562 4.105469 -7.28125 5.640625 -7.28125 C 5.894531 -7.28125 6.101562 -7.261719 6.292969 -7.199219 L 6.292969 -8.523438 C 6.101562 -8.566406 5.894531 -8.585938 5.640625 -8.585938 Z M 5.640625 -8.585938 "/></g></g></g><g fill="#7cacb8" fill-opacity="1"><g transform="translate(193.24557, 293.182303)"><g/></g></g><g fill="#7cacb8" fill-opacity="1"><g transform="translate(198.317486, 293.182303)"><g><path d="M 12.671875 -12.628906 L 7.808594 -1.621094 L 2.96875 -12.628906 L 1.535156 -12.628906 L 1.535156 0 L 2.882812 0 L 2.882812 -9.976562 L 7.238281 0 L 8.355469 0 L 12.753906 -9.933594 L 12.753906 0 L 14.082031 0 L 14.082031 -12.628906 Z M 12.671875 -12.628906 "/></g></g></g><g fill="#7cacb8" fill-opacity="1"><g transform="translate(213.933107, 293.182303)"><g><path d="M 10.566406 -1.09375 C 10.101562 -1.09375 9.703125 -1.410156 9.703125 -2.1875 L 9.703125 -8.417969 L 8.398438 -8.417969 L 8.398438 -7.324219 C 7.617188 -8.101562 6.523438 -8.585938 5.324219 -8.585938 C 2.90625 -8.585938 0.945312 -6.628906 0.945312 -4.210938 C 0.945312 -1.789062 2.90625 0.167969 5.324219 0.167969 C 6.585938 0.167969 7.722656 -0.421875 8.523438 -1.285156 C 8.796875 -0.421875 9.472656 0.167969 10.460938 0.167969 C 10.691406 0.167969 10.921875 0.105469 11.089844 0 L 11.089844 -1.09375 Z M 5.324219 -1.136719 C 3.621094 -1.136719 2.253906 -2.503906 2.253906 -4.210938 C 2.253906 -5.914062 3.621094 -7.28125 5.324219 -7.28125 C 7.007812 -7.28125 8.398438 -5.914062 8.398438 -4.210938 C 8.398438 -2.503906 7.007812 -1.136719 5.324219 -1.136719 Z M 5.324219 -1.136719 "/></g></g></g><g fill="#7cacb8" fill-opacity="1"><g transform="translate(225.276527, 293.182303)"><g><path d="M 6.945312 -8.417969 L 4.335938 -1.515625 L 1.640625 -8.417969 L 0.1875 -8.417969 L 3.640625 0.0625 L 1.621094 5.050781 L 3.007812 5.050781 L 4.796875 0.632812 L 8.417969 -8.417969 Z M 6.945312 -8.417969 "/></g></g></g><g fill="#7cacb8" fill-opacity="1"><g transform="translate(233.88406, 293.182303)"><g><path d="M 10.566406 -1.09375 C 10.101562 -1.09375 9.703125 -1.410156 9.703125 -2.1875 L 9.703125 -8.417969 L 8.398438 -8.417969 L 8.398438 -7.324219 C 7.617188 -8.101562 6.523438 -8.585938 5.324219 -8.585938 C 2.90625 -8.585938 0.945312 -6.628906 0.945312 -4.210938 C 0.945312 -1.789062 2.90625 0.167969 5.324219 0.167969 C 6.585938 0.167969 7.722656 -0.421875 8.523438 -1.285156 C 8.796875 -0.421875 9.472656 0.167969 10.460938 0.167969 C 10.691406 0.167969 10.921875 0.105469 11.089844 0 L 11.089844 -1.09375 Z M 5.324219 -1.136719 C 3.621094 -1.136719 2.253906 -2.503906 2.253906 -4.210938 C 2.253906 -5.914062 3.621094 -7.28125 5.324219 -7.28125 C 7.007812 -7.28125 8.398438 -5.914062 8.398438 -4.210938 C 8.398438 -2.503906 7.007812 -1.136719 5.324219 -1.136719 Z M 5.324219 -1.136719 "/></g></g></g></svg>