<svg xmlns="http://www.w3.org/2000/svg" xmlns:xlink="http://www.w3.org/1999/xlink" width="500" zoomAndPan="magnify" viewBox="0 0 375 374.999991" height="500" preserveAspectRatio="xMidYMid meet" version="1.0"><defs><filter x="0%" y="0%" width="100%" height="100%" id="id1"><feColorMatrix values="0 0 0 0 1 0 0 0 0 1 0 0 0 0 1 0 0 0 1 0" color-interpolation-filters="sRGB"/></filter><g/><mask id="id2"><g filter="url(#id1)"><rect x="-37.5" width="450" fill="#000000" y="-37.499999" height="449.999989" fill-opacity="0.8471"/></g></mask><clipPath id="id3"><path d="M 0.390625 0.390625 L 302.640625 0.390625 L 302.640625 302.640625 L 0.390625 302.640625 Z M 0.390625 0.390625 " clip-rule="nonzero"/></clipPath><clipPath id="id4"><rect x="0" width="303" y="0" height="303"/></clipPath><clipPath id="id5"><path d="M 109.6875 119 L 185 119 L 185 173.253906 L 109.6875 173.253906 Z M 109.6875 119 " clip-rule="nonzero"/></clipPath><clipPath id="id6"><path d="M 109.6875 118 L 186 118 L 186 168 L 109.6875 168 Z M 109.6875 118 " clip-rule="nonzero"/></clipPath><clipPath id="id7"><path d="M 160 73.503906 L 187 73.503906 L 187 167 L 160 167 Z M 160 73.503906 " clip-rule="nonzero"/></clipPath><clipPath id="id8"><path d="M 184 73.503906 L 212 73.503906 L 212 167 L 184 167 Z M 184 73.503906 " clip-rule="nonzero"/></clipPath><clipPath id="id9"><path d="M 184 119 L 259.6875 119 L 259.6875 173 L 184 173 Z M 184 119 " clip-rule="nonzero"/></clipPath><clipPath id="id10"><path d="M 183 118 L 259.6875 118 L 259.6875 168 L 183 168 Z M 183 118 " clip-rule="nonzero"/></clipPath></defs><g mask="url(#id2)"><g transform="matrix(1, 0, 0, 1, 36, 36)"><g clip-path="url(#id4)"><g clip-path="url(#id3)"><path fill="#f5f0ec" d="M 151.515625 0.390625 C 68.050781 0.390625 0.390625 68.050781 0.390625 151.515625 C 0.390625 234.980469 68.050781 302.640625 151.515625 302.640625 C 234.980469 302.640625 302.640625 234.980469 302.640625 151.515625 C 302.640625 68.050781 234.980469 0.390625 151.515625 0.390625 " fill-opacity="1" fill-rule="nonzero"/></g></g></g></g><g clip-path="url(#id5)"><path fill="#7cacb8" d="M 182.480469 165.460938 C 180.273438 167.539062 177.234375 168.210938 174.324219 168.6875 C 170.773438 169.265625 167.160156 169.742188 163.578125 170.0625 C 156.605469 170.703125 149.570312 170.574219 142.917969 168.175781 C 131.242188 163.988281 122.449219 154.175781 117.621094 142.988281 C 114.613281 136.019531 113.046875 128.445312 112.566406 120.871094 C 112.4375 119.082031 109.625 119.046875 109.75 120.871094 C 110.679688 134.804688 115.125 148.871094 124.816406 159.257812 C 129.164062 163.925781 134.410156 167.699219 140.296875 170.160156 C 147.074219 172.972656 154.367188 173.578125 161.628906 173.035156 C 165.945312 172.714844 170.261719 172.140625 174.515625 171.46875 C 178.132812 170.925781 181.777344 170 184.527344 167.410156 C 185.773438 166.195312 183.792969 164.214844 182.480469 165.460938 Z M 182.480469 165.460938 " fill-opacity="1" fill-rule="nonzero"/></g><g clip-path="url(#id6)"><path fill="#7cacb8" d="M 185.519531 166.132812 C 186.703125 153.632812 180.65625 141.296875 171.351562 133.175781 C 161.5 124.546875 148.675781 120.328125 135.816406 118.984375 C 127.597656 118.121094 119.28125 118.410156 111.0625 119.144531 C 109.273438 119.304688 109.238281 122.117188 111.0625 121.957031 C 124.558594 120.773438 138.441406 120.742188 151.425781 125.121094 C 162.746094 128.925781 173.078125 136.179688 178.707031 146.921875 C 181.808594 152.800781 183.3125 159.484375 182.671875 166.132812 C 182.511719 167.921875 185.359375 167.921875 185.519531 166.132812 Z M 185.519531 166.132812 " fill-opacity="1" fill-rule="nonzero"/></g><path fill="#7cacb8" d="M 184.816406 164.375 C 181.359375 165.394531 177.84375 164.214844 174.582031 163.125 C 171.445312 162.070312 168.28125 160.984375 165.210938 159.769531 C 159.230469 157.40625 153.472656 154.304688 148.898438 149.703125 C 140.070312 140.816406 136.359375 128.0625 136.96875 115.757812 C 137.351562 107.957031 139.398438 100.253906 142.4375 93.09375 C 142.726562 92.390625 142.628906 91.589844 141.925781 91.175781 C 141.351562 90.824219 140.296875 90.984375 140.007812 91.6875 C 134.410156 104.824219 132.011719 119.71875 136.296875 133.59375 C 138.183594 139.664062 141.253906 145.386719 145.507812 150.179688 C 150.050781 155.296875 155.933594 158.84375 162.171875 161.527344 C 165.785156 163.0625 169.496094 164.375 173.207031 165.621094 C 177.171875 166.960938 181.394531 168.335938 185.582031 167.089844 C 187.308594 166.578125 186.542969 163.863281 184.816406 164.375 Z M 184.816406 164.375 " fill-opacity="1" fill-rule="nonzero"/><path fill="#7cacb8" d="M 162.492188 100.507812 C 156.03125 96.609375 149.121094 93.445312 142.117188 90.664062 C 141.414062 90.375 140.582031 90.984375 140.390625 91.65625 C 140.167969 92.453125 140.679688 93.09375 141.382812 93.382812 C 148.164062 96.097656 154.816406 99.167969 161.085938 102.9375 C 162.621094 103.863281 164.058594 101.4375 162.492188 100.507812 Z M 162.492188 100.507812 " fill-opacity="1" fill-rule="nonzero"/><path fill="#7cacb8" d="M 187.535156 166.355469 C 192.972656 157.726562 194.15625 146.984375 191.949219 137.171875 C 189.742188 127.390625 184.078125 118.632812 176.980469 111.632812 C 172.628906 107.347656 167.703125 103.671875 162.492188 100.507812 C 160.925781 99.550781 159.515625 102.011719 161.050781 102.9375 C 169.496094 108.085938 177.234375 114.636719 182.703125 122.980469 C 187.917969 130.9375 190.828125 140.242188 190.0625 149.796875 C 189.644531 155.167969 187.980469 160.378906 185.101562 164.949219 C 184.113281 166.484375 186.574219 167.890625 187.535156 166.355469 Z M 187.535156 166.355469 " fill-opacity="1" fill-rule="nonzero"/><g clip-path="url(#id7)"><path fill="#7cacb8" d="M 184.65625 164.085938 C 174.355469 157.085938 167.417969 145.640625 164.730469 133.59375 C 161.597656 119.625 163.996094 104.25 171.285156 91.941406 C 174.902344 85.742188 179.824219 80.242188 185.808594 76.214844 C 187.308594 75.195312 185.902344 72.765625 184.367188 73.785156 C 172.535156 81.777344 164.761719 94.753906 161.882812 108.628906 C 158.910156 123.011719 160.988281 138.289062 168.632812 150.949219 C 172.34375 157.085938 177.265625 162.519531 183.214844 166.546875 C 184.71875 167.539062 186.125 165.109375 184.65625 164.085938 Z M 184.65625 164.085938 " fill-opacity="1" fill-rule="nonzero"/></g><g clip-path="url(#id8)"><path fill="#7cacb8" d="M 187.34375 166.546875 C 198.632812 159.324219 206.722656 147.433594 209.859375 134.453125 C 213.441406 119.65625 210.691406 103.289062 202.535156 90.410156 C 198.34375 83.761719 192.746094 78.007812 186.09375 73.785156 C 184.558594 72.796875 183.152344 75.257812 184.65625 76.214844 C 196.296875 83.632812 204.230469 95.875 207.203125 109.265625 C 210.242188 123.011719 208.003906 137.523438 200.421875 149.414062 C 196.679688 155.261719 191.753906 160.378906 185.902344 164.117188 C 184.367188 165.078125 185.808594 167.539062 187.34375 166.546875 Z M 187.34375 166.546875 " fill-opacity="1" fill-rule="nonzero"/></g><path fill="#7cacb8" d="M 183.535156 165.875 C 187.183594 166.960938 190.925781 166.066406 194.441406 164.886719 C 197.832031 163.765625 201.191406 162.617188 204.484375 161.304688 C 210.882812 158.78125 217.054688 155.550781 221.980469 150.660156 C 231.445312 141.296875 235.605469 127.648438 234.933594 114.542969 C 234.515625 106.199219 232.34375 98.113281 229.078125 90.472656 C 228.792969 89.769531 227.738281 89.609375 227.160156 89.960938 C 226.425781 90.375 226.359375 91.207031 226.648438 91.878906 C 231.894531 104.21875 234.101562 118.3125 230.167969 131.324219 C 228.441406 136.980469 225.625 142.382812 221.691406 146.824219 C 217.46875 151.683594 212 155.039062 206.148438 157.597656 C 202.757812 159.066406 199.273438 160.28125 195.785156 161.464844 C 192.140625 162.710938 188.171875 164.277344 184.304688 163.160156 C 182.542969 162.648438 181.808594 165.363281 183.535156 165.875 Z M 183.535156 165.875 " fill-opacity="1" fill-rule="nonzero"/><path fill="#7cacb8" d="M 184.015625 163.703125 C 177.425781 153.28125 177.585938 139.824219 182.542969 128.765625 C 187.628906 117.386719 196.96875 108.53125 207.425781 102.074219 C 213.855469 98.113281 220.730469 94.914062 227.738281 92.132812 C 228.441406 91.847656 228.953125 91.175781 228.726562 90.410156 C 228.535156 89.738281 227.703125 89.128906 227 89.417969 C 214.273438 94.5 201.734375 100.828125 191.914062 110.609375 C 182.894531 119.625 176.4375 131.449219 176.117188 144.394531 C 175.925781 151.652344 177.683594 158.972656 181.585938 165.109375 C 182.542969 166.675781 184.976562 165.269531 184.015625 163.703125 Z M 184.015625 163.703125 " fill-opacity="1" fill-rule="nonzero"/><g clip-path="url(#id9)"><path fill="#7cacb8" d="M 184.910156 166.996094 C 187.34375 169.296875 190.507812 170.285156 193.738281 170.863281 C 197.382812 171.5 201.0625 171.949219 204.742188 172.332031 C 212.191406 173.097656 219.835938 173.066406 226.96875 170.542969 C 239.441406 166.164062 249.070312 155.933594 254.21875 143.949219 C 257.449219 136.5 259.144531 128.507812 259.65625 120.421875 C 259.785156 118.601562 256.9375 118.632812 256.839844 120.421875 C 255.976562 133.496094 251.820312 146.824219 242.800781 156.605469 C 238.769531 160.984375 233.910156 164.597656 228.40625 166.960938 C 222.109375 169.679688 215.296875 170.253906 208.484375 169.839844 C 204.355469 169.582031 200.261719 169.007812 196.203125 168.433594 C 192.9375 167.953125 189.355469 167.378906 186.863281 165.011719 C 185.582031 163.765625 183.601562 165.746094 184.910156 166.996094 Z M 184.910156 166.996094 " fill-opacity="1" fill-rule="nonzero"/></g><g clip-path="url(#id10)"><path fill="#7cacb8" d="M 186.671875 165.683594 C 185.550781 153.730469 191.308594 142.222656 200.230469 134.519531 C 209.699219 126.367188 222.171875 122.4375 234.453125 121.285156 C 242.382812 120.550781 250.378906 120.839844 258.3125 121.542969 C 260.136719 121.703125 260.101562 118.886719 258.3125 118.730469 C 244.273438 117.480469 229.75 117.578125 216.320312 122.308594 C 204.515625 126.464844 193.800781 134.199219 188.015625 145.484375 C 184.816406 151.683594 183.183594 158.714844 183.855469 165.714844 C 184.015625 167.472656 186.863281 167.472656 186.671875 165.683594 Z M 186.671875 165.683594 " fill-opacity="1" fill-rule="nonzero"/></g><g fill="#7cacb8" fill-opacity="1"><g transform="translate(87.509193, 240.015234)"><g><path d="M 40.359375 -33.484375 L 38.734375 -33.484375 C 37.960938 -37.253906 36.925781 -39.648438 35.625 -40.671875 C 34.332031 -41.691406 31.757812 -42.203125 27.90625 -42.203125 L 24.234375 -42.203125 L 24.234375 -7.421875 C 24.234375 -4.921875 24.617188 -3.304688 25.390625 -2.578125 C 26.160156 -1.859375 27.953125 -1.429688 30.765625 -1.296875 L 30.765625 0 L 10.890625 0 L 10.890625 -1.296875 C 13.703125 -1.472656 15.46875 -1.9375 16.1875 -2.6875 C 16.914062 -3.4375 17.28125 -5.265625 17.28125 -8.171875 L 17.28125 -42.203125 L 13.609375 -42.203125 C 9.796875 -42.203125 7.242188 -41.675781 5.953125 -40.625 C 4.660156 -39.582031 3.609375 -37.203125 2.796875 -33.484375 L 1.15625 -33.484375 L 1.5625 -45.0625 L 39.953125 -45.0625 Z M 40.359375 -33.484375 "/></g></g></g><g fill="#7cacb8" fill-opacity="1"><g transform="translate(131.477923, 240.015234)"><g><path d="M 40.640625 -11.5 L 37.578125 0 L 0.8125 0 L 0.8125 -1.296875 C 3.3125 -1.472656 4.921875 -1.9375 5.640625 -2.6875 C 6.367188 -3.4375 6.734375 -5.015625 6.734375 -7.421875 L 6.734375 -37.640625 C 6.734375 -40.046875 6.378906 -41.609375 5.671875 -42.328125 C 4.972656 -43.054688 3.351562 -43.535156 0.8125 -43.765625 L 0.8125 -45.0625 L 36.953125 -45.0625 L 37.15625 -35.328125 L 35.453125 -35.328125 C 34.867188 -38.367188 33.960938 -40.316406 32.734375 -41.171875 C 31.515625 -42.035156 28.972656 -42.46875 25.109375 -42.46875 L 15.921875 -42.46875 C 15.015625 -42.46875 14.414062 -42.320312 14.125 -42.03125 C 13.832031 -41.738281 13.6875 -41.113281 13.6875 -40.15625 L 13.6875 -25.046875 L 24.15625 -25.046875 C 26.925781 -25.046875 28.753906 -25.429688 29.640625 -26.203125 C 30.523438 -26.972656 31.195312 -28.742188 31.65625 -31.515625 L 33.21875 -31.515625 L 33.21875 -15.71875 L 31.65625 -15.71875 C 31.195312 -18.53125 30.535156 -20.320312 29.671875 -21.09375 C 28.804688 -21.863281 26.96875 -22.25 24.15625 -22.25 L 13.6875 -22.25 L 13.6875 -5.4375 C 13.6875 -4.21875 13.863281 -3.492188 14.21875 -3.265625 C 14.851562 -2.765625 17.054688 -2.515625 20.828125 -2.515625 L 22.671875 -2.515625 C 27.523438 -2.515625 30.992188 -3.09375 33.078125 -4.25 C 35.160156 -5.40625 37.046875 -7.820312 38.734375 -11.5 Z M 40.640625 -11.5 "/></g></g></g><g fill="#7cacb8" fill-opacity="1"><g transform="translate(175.446653, 240.015234)"><g><path d="M 48.046875 0 L 30.703125 0 L 30.703125 -1.296875 C 32.554688 -1.296875 33.820312 -1.5 34.5 -1.90625 C 35.132812 -2.21875 35.453125 -2.765625 35.453125 -3.546875 C 35.453125 -4.628906 35.023438 -6.171875 34.171875 -8.171875 L 31.375 -14.703125 L 13.546875 -14.703125 L 10.40625 -6.734375 C 10.050781 -5.785156 9.875 -4.898438 9.875 -4.078125 C 9.875 -2.222656 11.414062 -1.296875 14.5 -1.296875 L 14.5 0 L 1.015625 0 L 1.015625 -1.296875 C 2.648438 -1.378906 3.921875 -2.019531 4.828125 -3.21875 C 5.734375 -4.425781 7.273438 -7.503906 9.453125 -12.453125 L 23.625 -45.875 L 24.984375 -45.875 L 41.921875 -7.21875 C 43.109375 -4.675781 44.039062 -3.070312 44.71875 -2.40625 C 45.394531 -1.75 46.503906 -1.378906 48.046875 -1.296875 Z M 30.421875 -17.484375 L 22.53125 -36.203125 L 14.703125 -17.484375 Z M 30.421875 -17.484375 "/></g></g></g><g fill="#7cacb8" fill-opacity="1"><g transform="translate(226.97032, 240.015234)"><g><path d="M 58.734375 0 L 39.6875 0 L 39.6875 -1.296875 C 42.363281 -1.472656 44.0625 -1.957031 44.78125 -2.75 C 45.507812 -3.550781 45.875 -5.359375 45.875 -8.171875 L 45.875 -39 L 28.453125 0 L 27.5 0 L 10.40625 -37.4375 L 10.40625 -10 C 10.40625 -6.550781 10.8125 -4.269531 11.625 -3.15625 C 12.445312 -2.050781 14.175781 -1.429688 16.8125 -1.296875 L 16.8125 0 L 0.8125 0 L 0.8125 -1.296875 C 3.625 -1.472656 5.425781 -2.09375 6.21875 -3.15625 C 7.019531 -4.226562 7.421875 -6.507812 7.421875 -10 L 7.421875 -37.640625 C 7.421875 -40.128906 7.046875 -41.722656 6.296875 -42.421875 C 5.546875 -43.128906 3.765625 -43.578125 0.953125 -43.765625 L 0.953125 -45.0625 L 14.421875 -45.0625 L 30.15625 -10.6875 L 45.1875 -45.0625 L 58.734375 -45.0625 L 58.734375 -43.765625 C 56.191406 -43.535156 54.566406 -43.054688 53.859375 -42.328125 C 53.160156 -41.609375 52.8125 -40.046875 52.8125 -37.640625 L 52.8125 -7.421875 C 52.8125 -5.015625 53.175781 -3.4375 53.90625 -2.6875 C 54.632812 -1.9375 56.242188 -1.472656 58.734375 -1.296875 Z M 58.734375 0 "/></g></g></g><g fill="#7cacb8" fill-opacity="1"><g transform="translate(115.19565, 262.501535)"><g><path d="M 8.390625 -12.429688 L 0.1875 -12.429688 L 0.1875 -11.101562 L 3.625 -11.101562 L 3.625 0 L 4.949219 0 L 4.949219 -11.101562 L 8.390625 -11.101562 Z M 8.390625 -12.429688 "/></g></g></g><g fill="#7cacb8" fill-opacity="1"><g transform="translate(123.770592, 262.501535)"><g><path d="M 7.394531 0.164062 C 10.9375 0.164062 13.773438 -2.691406 13.773438 -6.214844 C 13.773438 -9.734375 10.9375 -12.59375 7.394531 -12.59375 C 3.875 -12.59375 1.015625 -9.734375 1.015625 -6.214844 C 1.015625 -2.691406 3.875 0.164062 7.394531 0.164062 Z M 7.394531 -1.160156 C 4.597656 -1.160156 2.339844 -3.398438 2.339844 -6.214844 C 2.339844 -9.03125 4.597656 -11.269531 7.394531 -11.269531 C 10.210938 -11.269531 12.449219 -9.03125 12.449219 -6.214844 C 12.449219 -3.398438 10.210938 -1.160156 7.394531 -1.160156 Z M 7.394531 -1.160156 "/></g></g></g><g fill="#7cacb8" fill-opacity="1"><g transform="translate(138.579976, 262.501535)"><g><path d="M 12.46875 -12.429688 L 7.683594 -1.59375 L 2.921875 -12.429688 L 1.511719 -12.429688 L 1.511719 0 L 2.835938 0 L 2.835938 -9.816406 L 7.125 0 L 8.222656 0 L 12.550781 -9.777344 L 12.550781 0 L 13.855469 0 L 13.855469 -12.429688 Z M 12.46875 -12.429688 "/></g></g></g><g fill="#7cacb8" fill-opacity="1"><g transform="translate(153.948594, 262.501535)"><g><path d="M 9.011719 0 L 10.460938 0 L 5.964844 -12.429688 L 4.496094 -12.429688 L 0 0 L 1.449219 0 L 2.464844 -2.898438 L 7.996094 -2.898438 Z M 2.898438 -4.164062 L 5.242188 -10.855469 L 7.558594 -4.164062 Z M 2.898438 -4.164062 "/></g></g></g><g fill="#7cacb8" fill-opacity="1"><g transform="translate(164.408364, 262.501535)"><g><path d="M 4.640625 0.164062 C 6.753906 0.164062 8.472656 -1.097656 8.472656 -3.273438 C 8.472656 -7.5 2.421875 -6.460938 2.421875 -9.425781 C 2.421875 -10.667969 3.4375 -11.269531 4.597656 -11.269531 C 5.550781 -11.269531 6.339844 -10.875 6.835938 -10.171875 L 7.871094 -11.039062 C 7.1875 -11.910156 5.984375 -12.59375 4.558594 -12.59375 C 2.652344 -12.59375 1.097656 -11.351562 1.097656 -9.320312 C 1.097656 -5.324219 7.144531 -6.316406 7.144531 -3.230469 C 7.144531 -1.90625 6.046875 -1.160156 4.660156 -1.160156 C 3.253906 -1.160156 2.238281 -1.925781 1.800781 -3.066406 L 0.601562 -2.363281 C 1.242188 -0.828125 2.796875 0.164062 4.640625 0.164062 Z M 4.640625 0.164062 "/></g></g></g><g fill="#7cacb8" fill-opacity="1"><g transform="translate(173.480407, 262.501535)"><g/></g></g><g fill="#7cacb8" fill-opacity="1"><g transform="translate(178.472096, 262.501535)"><g><path d="M 8.410156 -11.144531 L 8.410156 -12.429688 L 1.617188 -12.429688 L 1.617188 0 L 8.410156 0 L 8.410156 -1.285156 L 2.941406 -1.285156 L 2.941406 -5.570312 L 7.707031 -5.570312 L 7.707031 -6.855469 L 2.941406 -6.855469 L 2.941406 -11.144531 Z M 8.410156 -11.144531 "/></g></g></g><g fill="#7cacb8" fill-opacity="1"><g transform="translate(188.124083, 262.501535)"><g><path d="M 10.441406 -12.429688 L 10.441406 -2.214844 L 2.753906 -12.429688 L 1.511719 -12.429688 L 1.511719 0 L 2.835938 0 L 2.835938 -10.210938 L 10.5 0 L 11.746094 0 L 11.746094 -12.429688 Z M 10.441406 -12.429688 "/></g></g></g><g fill="#7cacb8" fill-opacity="1"><g transform="translate(201.380032, 262.501535)"><g><path d="M 6.546875 -5.675781 C 8.183594 -5.902344 9.425781 -7.269531 9.425781 -8.949219 C 9.425781 -10.894531 7.871094 -12.429688 5.964844 -12.429688 L 1.511719 -12.429688 L 1.511719 0 L 2.835938 0 L 2.835938 -5.613281 L 5.179688 -5.613281 L 8.699219 0 L 10.210938 0 Z M 2.835938 -6.875 L 2.835938 -11.101562 L 5.882812 -11.101562 C 7.125 -11.101562 8.097656 -10.234375 8.097656 -8.988281 C 8.097656 -7.726562 7.144531 -6.875 5.882812 -6.875 Z M 2.835938 -6.875 "/></g></g></g><g fill="#7cacb8" fill-opacity="1"><g transform="translate(211.77767, 262.501535)"><g><path d="M 1.617188 0 L 2.941406 0 L 2.941406 -12.429688 L 1.617188 -12.429688 Z M 1.617188 0 "/></g></g></g><g fill="#7cacb8" fill-opacity="1"><g transform="translate(216.313688, 262.501535)"><g><path d="M 14.25 -1.242188 L 12.386719 -1.242188 L 10.5625 -0.664062 C 12.492188 -1.761719 13.773438 -3.832031 13.773438 -6.214844 C 13.773438 -9.734375 10.9375 -12.59375 7.394531 -12.59375 C 3.875 -12.59375 1.015625 -9.734375 1.015625 -6.214844 C 1.015625 -2.691406 3.875 0.164062 7.394531 0.164062 C 7.890625 0.164062 8.390625 0.105469 8.84375 0 L 14.25 0 Z M 2.339844 -6.214844 C 2.339844 -9.03125 4.597656 -11.269531 7.394531 -11.269531 C 10.210938 -11.269531 12.449219 -9.03125 12.449219 -6.214844 C 12.449219 -3.398438 10.210938 -1.160156 7.394531 -1.160156 C 4.597656 -1.160156 2.339844 -3.398438 2.339844 -6.214844 Z M 2.339844 -6.214844 "/></g></g></g><g fill="#7cacb8" fill-opacity="1"><g transform="translate(231.205923, 262.501535)"><g><path d="M 6.109375 0.164062 C 8.824219 0.164062 10.792969 -1.636719 10.792969 -4.082031 L 10.792969 -12.429688 L 9.464844 -12.429688 L 9.464844 -4.289062 C 9.464844 -2.484375 8.035156 -1.160156 6.109375 -1.160156 C 4.183594 -1.160156 2.777344 -2.484375 2.777344 -4.289062 L 2.777344 -12.429688 L 1.449219 -12.429688 L 1.449219 -4.082031 C 1.449219 -1.636719 3.417969 0.164062 6.109375 0.164062 Z M 6.109375 0.164062 "/></g></g></g><g fill="#7cacb8" fill-opacity="1"><g transform="translate(243.446967, 262.501535)"><g><path d="M 8.410156 -11.144531 L 8.410156 -12.429688 L 1.617188 -12.429688 L 1.617188 0 L 8.410156 0 L 8.410156 -1.285156 L 2.941406 -1.285156 L 2.941406 -5.570312 L 7.707031 -5.570312 L 7.707031 -6.855469 L 2.941406 -6.855469 L 2.941406 -11.144531 Z M 8.410156 -11.144531 "/></g></g></g><g fill="#7cacb8" fill-opacity="1"><g transform="translate(123.173784, 285.371668)"><g><path d="M 9.011719 0 L 10.460938 0 L 5.964844 -12.429688 L 4.496094 -12.429688 L 0 0 L 1.449219 0 L 2.464844 -2.898438 L 7.996094 -2.898438 Z M 2.898438 -4.164062 L 5.242188 -10.855469 L 7.558594 -4.164062 Z M 2.898438 -4.164062 "/></g></g></g><g fill="#7cacb8" fill-opacity="1"><g transform="translate(133.633554, 285.371668)"><g><path d="M 7.4375 -6.585938 L 7.4375 -5.34375 L 12.429688 -5.34375 C 12.035156 -2.941406 9.964844 -1.160156 7.457031 -1.160156 C 4.660156 -1.160156 2.402344 -3.398438 2.402344 -6.214844 C 2.402344 -9.03125 4.660156 -11.269531 7.457031 -11.269531 C 9.34375 -11.269531 11 -10.253906 11.847656 -8.71875 L 12.988281 -9.363281 C 11.910156 -11.289062 9.839844 -12.59375 7.457031 -12.59375 C 3.914062 -12.59375 1.078125 -9.734375 1.078125 -6.214844 C 1.078125 -2.691406 3.914062 0.164062 7.457031 0.164062 C 10.976562 0.164062 13.835938 -2.691406 13.835938 -6.214844 L 13.835938 -6.585938 Z M 7.4375 -6.585938 "/></g></g></g><g fill="#7cacb8" fill-opacity="1"><g transform="translate(148.525788, 285.371668)"><g><path d="M 6.109375 0.164062 C 8.824219 0.164062 10.792969 -1.636719 10.792969 -4.082031 L 10.792969 -12.429688 L 9.464844 -12.429688 L 9.464844 -4.289062 C 9.464844 -2.484375 8.035156 -1.160156 6.109375 -1.160156 C 4.183594 -1.160156 2.777344 -2.484375 2.777344 -4.289062 L 2.777344 -12.429688 L 1.449219 -12.429688 L 1.449219 -4.082031 C 1.449219 -1.636719 3.417969 0.164062 6.109375 0.164062 Z M 6.109375 0.164062 "/></g></g></g><g fill="#7cacb8" fill-opacity="1"><g transform="translate(160.766833, 285.371668)"><g><path d="M 1.617188 0 L 2.941406 0 L 2.941406 -12.429688 L 1.617188 -12.429688 Z M 1.617188 0 "/></g></g></g><g fill="#7cacb8" fill-opacity="1"><g transform="translate(165.30285, 285.371668)"><g><path d="M 2.835938 -1.324219 L 2.835938 -12.429688 L 1.511719 -12.429688 L 1.511719 0 L 7.457031 0 L 7.457031 -1.324219 Z M 2.835938 -1.324219 "/></g></g></g><g fill="#7cacb8" fill-opacity="1"><g transform="translate(172.94573, 285.371668)"><g><path d="M 9.011719 0 L 10.460938 0 L 5.964844 -12.429688 L 4.496094 -12.429688 L 0 0 L 1.449219 0 L 2.464844 -2.898438 L 7.996094 -2.898438 Z M 2.898438 -4.164062 L 5.242188 -10.855469 L 7.558594 -4.164062 Z M 2.898438 -4.164062 "/></g></g></g><g fill="#7cacb8" fill-opacity="1"><g transform="translate(183.4055, 285.371668)"><g><path d="M 6.546875 -5.675781 C 8.183594 -5.902344 9.425781 -7.269531 9.425781 -8.949219 C 9.425781 -10.894531 7.871094 -12.429688 5.964844 -12.429688 L 1.511719 -12.429688 L 1.511719 0 L 2.835938 0 L 2.835938 -5.613281 L 5.179688 -5.613281 L 8.699219 0 L 10.210938 0 Z M 2.835938 -6.875 L 2.835938 -11.101562 L 5.882812 -11.101562 C 7.125 -11.101562 8.097656 -10.234375 8.097656 -8.988281 C 8.097656 -7.726562 7.144531 -6.875 5.882812 -6.875 Z M 2.835938 -6.875 "/></g></g></g><g fill="#7cacb8" fill-opacity="1"><g transform="translate(193.803138, 285.371668)"><g/></g></g><g fill="#7cacb8" fill-opacity="1"><g transform="translate(198.794828, 285.371668)"><g><path d="M 12.46875 -12.429688 L 7.683594 -1.59375 L 2.921875 -12.429688 L 1.511719 -12.429688 L 1.511719 0 L 2.835938 0 L 2.835938 -9.816406 L 7.125 0 L 8.222656 0 L 12.550781 -9.777344 L 12.550781 0 L 13.855469 0 L 13.855469 -12.429688 Z M 12.46875 -12.429688 "/></g></g></g><g fill="#7cacb8" fill-opacity="1"><g transform="translate(214.163445, 285.371668)"><g><path d="M 9.011719 0 L 10.460938 0 L 5.964844 -12.429688 L 4.496094 -12.429688 L 0 0 L 1.449219 0 L 2.464844 -2.898438 L 7.996094 -2.898438 Z M 2.898438 -4.164062 L 5.242188 -10.855469 L 7.558594 -4.164062 Z M 2.898438 -4.164062 "/></g></g></g><g fill="#7cacb8" fill-opacity="1"><g transform="translate(224.623215, 285.371668)"><g><path d="M 10.027344 -12.429688 L 8.390625 -12.429688 L 5.035156 -7.269531 L 1.679688 -12.429688 L 0.0195312 -12.429688 L 4.371094 -5.882812 L 4.371094 0 L 5.695312 0 L 5.695312 -5.902344 Z M 10.027344 -12.429688 "/></g></g></g><g fill="#7cacb8" fill-opacity="1"><g transform="translate(234.668742, 285.371668)"><g><path d="M 9.011719 0 L 10.460938 0 L 5.964844 -12.429688 L 4.496094 -12.429688 L 0 0 L 1.449219 0 L 2.464844 -2.898438 L 7.996094 -2.898438 Z M 2.898438 -4.164062 L 5.242188 -10.855469 L 7.558594 -4.164062 Z M 2.898438 -4.164062 "/></g></g></g></svg>